<?xml version="1.0" encoding="UTF-8"?><svg id="Layer_1" xmlns="http://www.w3.org/2000/svg" xmlns:xlink="http://www.w3.org/1999/xlink" viewBox="0 0 615.12 615.12"><defs><style>.cls-1{fill:none;}.cls-2{clip-path:url(#clippath);}.cls-3{fill:#fff;}.cls-4{clip-path:url(#clippath-1);}</style><clipPath id="clippath"><rect class="cls-1" x="246.05" y="246.05" width="123.02" height="123.02"/></clipPath><clipPath id="clippath-1"><rect class="cls-1" x="123.02" y="123.02" width="369.07" height="369.07"/></clipPath></defs><g><g><g><rect x="123.02" y="123.02" width="16.78" height="369.07"/><rect x="155.05" y="123.02" width="16.78" height="369.07"/><rect x="187.08" y="123.02" width="16.78" height="369.07"/><rect x="219.1" y="123.02" width="16.78" height="369.07"/><rect x="251.13" y="123.02" width="16.78" height="369.07"/><rect x="283.15" y="123.02" width="16.78" height="369.07"/><rect x="315.17" y="123.02" width="16.8" height="369.07"/><rect x="347.21" y="123.02" width="16.78" height="369.07"/><rect x="379.24" y="123.02" width="16.78" height="369.07"/><rect x="411.26" y="123.02" width="16.78" height="369.07"/><rect x="443.29" y="123.02" width="16.78" height="369.07"/><rect x="475.32" y="123.02" width="16.78" height="369.07"/></g><g><rect class="cls-3" x="139.8" y="123.02" width="15.25" height="369.07"/><rect class="cls-3" x="171.83" y="123.02" width="15.25" height="369.07"/><rect class="cls-3" x="203.85" y="123.02" width="15.25" height="369.07"/><rect class="cls-3" x="235.88" y="123.02" width="15.25" height="369.07"/><rect class="cls-3" x="267.91" y="123.02" width="15.25" height="369.07"/><rect class="cls-3" x="299.93" y="123.02" width="15.25" height="369.07"/><rect class="cls-3" x="331.96" y="123.02" width="15.25" height="369.07"/><rect class="cls-3" x="363.99" y="123.02" width="15.25" height="369.07"/><rect class="cls-3" x="396.01" y="123.02" width="15.25" height="369.07"/><rect class="cls-3" x="428.04" y="123.02" width="15.25" height="369.07"/><rect class="cls-3" x="460.07" y="123.02" width="15.25" height="369.07"/></g><g class="cls-2"><g><g><rect class="cls-3" x="300.02" y="32.95" width="15.25" height="369.07"/><rect class="cls-3" x="332.04" y="32.95" width="15.25" height="369.07" transform="translate(52.83 -66.06) rotate(12.04)"/><rect class="cls-3" x="364.07" y="32.95" width="15.25" height="369.07" transform="translate(85.73 -104.51) rotate(18.06)"/><rect class="cls-3" x="396.1" y="32.95" width="15.25" height="369.07" transform="translate(123.78 -145.73) rotate(24.07)"/><rect class="cls-3" x="428.13" y="32.95" width="15.25" height="369.07" transform="translate(167.77 -189.16) rotate(30.09)"/></g><g><rect class="cls-3" x="267.82" y="32.95" width="15.25" height="369.07" transform="translate(590.19 372.74) rotate(167.96)"/><rect class="cls-3" x="235.79" y="32.95" width="15.25" height="369.07" transform="translate(542.26 348.8) rotate(161.94)"/><rect class="cls-3" x="203.77" y="32.95" width="15.25" height="369.07" transform="translate(493.1 329.86) rotate(155.93)"/><rect class="cls-3" x="171.74" y="32.95" width="15.25" height="369.07" transform="translate(443.6 315.73) rotate(149.91)"/></g></g></g></g><g class="cls-4"><g><path class="cls-1" d="m427.05,67.47l.89.98c.14.07.29.14.43.22l-1.32-1.19Z"/><path class="cls-1" d="m188.02,67.42l-1.52,1.37c.17-.09.34-.17.51-.26l1.01-1.11Z"/><path d="m428.37,68.66l102.37,92.7c-25.29-39.2-60.62-71.32-102.37-92.7Z"/><path d="m84.66,160.95l101.85-92.15c-41.49,21.3-76.63,53.22-101.85,92.15Z"/><path d="m307.56,39.64c-43.4,0-84.37,10.42-120.54,28.9L60.28,208.48c-4.76,12.19-8.65,24.83-11.59,37.82L198.98,80.34,42.5,291.5c-.22,4.48-.34,8.99-.34,13.53,0,4.9.14,9.77.41,14.6L212.39,90.47,48.69,363.75c1.72,7.62,3.77,15.1,6.13,22.45L226.88,98.97,71.82,427.02c3.16,6.09,6.55,12.03,10.15,17.84L241.42,107.52,107.91,479.87c4.15,4.73,8.45,9.31,12.92,13.73L257.74,111.76l-103.05,410.23c4.84,3.42,9.8,6.68,14.87,9.77l104.44-415.76-64.96,435.52c5.29,2.12,10.66,4.06,16.11,5.84l65.48-439.03-22.44,449.18c5.52.82,11.1,1.46,16.72,1.94l22.61-452.5,22.42,452.53c5.63-.47,11.2-1.11,16.72-1.93l-22.26-449.21,65.31,439.1c5.45-1.77,10.83-3.71,16.12-5.82l-64.79-435.6,104.29,415.88c5.07-3.09,10.03-6.35,14.87-9.76l-102.91-410.35,136.79,382.01c4.47-4.42,8.78-8.99,12.93-13.72L373.64,107.55l159.37,337.53c3.61-5.8,7-11.74,10.16-17.82L388.18,99l172.03,287.46c2.37-7.34,4.43-14.82,6.15-22.43L402.67,90.51l169.86,229.41c.27-4.93.42-9.89.42-14.89,0-4.43-.11-8.84-.33-13.22l-156.54-211.42,150.4,166.22c-2.91-12.97-6.77-25.58-11.51-37.76l-127.04-140.4c-36.13-18.42-77.04-28.81-120.38-28.81Z"/></g></g></g><g><polygon class="cls-3" points="352.67 369.07 335.54 369.07 360.09 246.05 369.07 246.05 369.07 286.89 352.67 369.07"/><polygon class="cls-3" points="369.07 320.92 369.07 369.07 354.44 369.07 369.07 320.92"/><polygon class="cls-3" points="262.48 369.07 246.05 286.67 246.05 246.05 255.08 246.05 279.61 369.07 262.48 369.07"/><rect class="cls-3" x="299.01" y="246.05" width="16.8" height="123.02"/><polygon class="cls-3" points="260.69 369.07 246.05 369.07 246.05 320.85 260.69 369.07"/><polygon class="cls-3" points="334.16 369.07 317.28 369.07 329.47 246.05 346.35 246.05 334.16 369.07"/><polygon class="cls-3" points="297.85 369.07 280.97 369.07 268.78 246.05 285.66 246.05 297.85 369.07"/></g></svg>