<?xml version="1.0" encoding="UTF-8"?><svg id="Layer_1" xmlns="http://www.w3.org/2000/svg" viewBox="0 0 615.12 615.12"><defs><style>.cls-1{fill:#231f20;}</style></defs><g><rect x="123.02" y="123.02" width="16.78" height="369.07"/><rect x="155.05" y="123.02" width="16.78" height="369.07"/><rect x="187.08" y="123.02" width="16.78" height="369.07"/><rect x="219.1" y="123.02" width="16.78" height="369.07"/><rect x="251.13" y="123.02" width="16.78" height="369.07"/><rect x="283.15" y="123.02" width="16.78" height="369.07"/><rect x="315.17" y="123.02" width="16.8" height="369.07"/><rect x="347.21" y="123.02" width="16.78" height="369.07"/><rect x="379.24" y="123.02" width="16.78" height="369.07"/><rect x="411.26" y="123.02" width="16.78" height="369.07"/><rect x="443.29" y="123.02" width="16.78" height="369.07"/><rect x="475.32" y="123.02" width="16.78" height="369.07"/></g><path class="cls-1" d="m614.37.75v613.62H.75V.75h613.62m.75-.75H0v615.12h615.12V0h0Z"/></svg>