<?xml version="1.0" encoding="UTF-8"?><svg id="Layer_1" xmlns="http://www.w3.org/2000/svg" viewBox="0 0 615.12 615.12"><defs><style>.cls-1{fill:#fff;}.cls-2{fill:#231f20;}</style></defs><g><g><rect x="123.02" y="123.02" width="16.78" height="369.07"/><rect x="155.05" y="123.02" width="16.78" height="369.07"/><rect x="187.08" y="123.02" width="16.78" height="369.07"/><rect x="219.1" y="123.02" width="16.78" height="369.07"/><rect x="251.13" y="123.02" width="16.78" height="369.07"/><rect x="283.16" y="123.02" width="16.78" height="369.07"/><rect x="315.17" y="123.02" width="16.8" height="369.07"/><rect x="347.21" y="123.02" width="16.78" height="369.07"/><rect x="379.24" y="123.02" width="16.78" height="369.07"/><rect x="411.27" y="123.02" width="16.78" height="369.07"/><rect x="443.29" y="123.02" width="16.78" height="369.07"/><rect x="475.32" y="123.02" width="16.78" height="369.07"/></g><g><polygon class="cls-1" points="363.22 286.65 363.22 256.23 347.98 258.73 347.98 284.67 363.22 286.65"/><polygon class="cls-1" points="331.19 282.49 331.19 261.49 315.95 263.99 315.95 280.52 331.19 282.49"/><polygon class="cls-1" points="299.17 278.34 299.17 266.75 283.92 269.25 283.92 276.36 299.17 278.34"/><polygon class="cls-1" points="267.14 274.18 267.14 272.01 259.75 273.22 267.14 274.18"/><polygon class="cls-1" points="267.14 324.99 251.9 323.47 251.9 358.89 267.14 353.2 267.14 324.99"/><polygon class="cls-1" points="283.92 326.65 283.92 346.95 299.17 341.26 299.17 328.16 283.92 326.65"/><polygon class="cls-1" points="326.91 330.92 315.95 329.83 315.95 335 326.91 330.92"/></g></g><path class="cls-2" d="m614.37.75v613.62H.75V.75h613.62m.75-.75H0v615.12h615.12V0h0Z"/></svg>