<?xml version="1.0" encoding="UTF-8"?><svg id="Layer_2" xmlns="http://www.w3.org/2000/svg" viewBox="0 0 615.12 615.12"><defs><style>.cls-1{fill:#fff;}.cls-2{fill:#231f20;}</style></defs><path class="cls-2" d="m614.12,1v613.12H1V1h613.12M615.12,0H0v615.12h615.12V0h0Z"/><g><rect x="123.03" y="123.02" width="16.78" height="369.07"/><rect x="155.05" y="123.02" width="16.78" height="369.07"/><rect x="187.08" y="123.02" width="16.78" height="369.07"/><rect x="219.11" y="123.02" width="16.78" height="369.07"/><rect x="251.13" y="123.02" width="16.78" height="369.07"/><rect x="283.16" y="123.02" width="16.78" height="369.07"/><rect x="315.18" y="123.02" width="16.8" height="369.07"/><rect x="347.21" y="123.02" width="16.78" height="369.07"/><rect x="379.24" y="123.02" width="16.78" height="369.07"/><rect x="411.27" y="123.02" width="16.78" height="369.07"/><rect x="443.29" y="123.02" width="16.78" height="369.07"/><rect x="475.32" y="123.02" width="16.78" height="369.07"/></g><g><path d="m492.1,177.03l-192.92,89.73v11.58l-15.25-1.98v-2.55l-78.62,36.38,150.37-24.52-7.69-1v-25.94l15.24-2.5v28.21l128.87-20.61v-86.8Zm-160.91,105.46l-15.24-1.98v-16.52l15.24-2.5v21Z"/><polygon class="cls-1" points="363.23 286.65 363.23 284.44 355.68 285.67 363.23 286.65"/><polygon class="cls-1" points="347.99 258.73 347.99 284.67 355.68 285.67 363.23 284.44 363.23 256.23 347.99 258.73"/><polygon class="cls-1" points="315.95 280.52 331.19 282.49 331.19 261.49 315.95 263.99 315.95 280.52"/><polygon class="cls-1" points="299.17 278.34 299.17 266.76 283.92 273.81 283.92 276.36 299.17 278.34"/></g><g><polygon points="324.18 331.94 315.95 335.01 315.95 333.57 299.17 336.91 299.17 341.26 283.92 346.95 283.92 339.95 267.15 343.29 267.15 353.2 251.9 358.89 251.9 346.32 123.03 371.67 131.42 489.38 375.62 321.7 324.18 331.94"/><polygon class="cls-1" points="267.15 353.2 267.15 343.29 251.9 346.32 251.9 358.89 267.15 353.2"/><polygon class="cls-1" points="299.17 341.26 299.17 336.91 283.92 339.95 283.92 346.95 299.17 341.26"/><polygon class="cls-1" points="324.18 331.94 315.95 333.57 315.95 335.01 324.18 331.94"/></g></svg>